<svg width="143" height="91" viewBox="0 0 143 91" fill="none" xmlns="http://www.w3.org/2000/svg">
<path fill-rule="evenodd" clip-rule="evenodd" d="M27.6189 56.6974C28.1842 56.8709 28.1842 57.6712 27.6189 57.8446L21.1841 59.8193C20.9935 59.8778 20.8445 60.027 20.7863 60.2176L18.8178 66.6629C18.6448 67.2292 17.8431 67.2292 17.6701 66.6629L15.7017 60.2176C15.6434 60.027 15.4944 59.8778 15.3038 59.8193L8.86905 57.8446C8.30376 57.6712 8.30375 56.8709 8.86903 56.6974L15.3039 54.7225C15.4944 54.664 15.6434 54.5148 15.7017 54.3242L17.6701 47.8789C17.8431 47.3126 18.6448 47.3126 18.8178 47.8789L20.7863 54.3242C20.8445 54.5148 20.9935 54.664 21.184 54.7225L27.6189 56.6974Z" fill="#FCD34D"/>
<path fill-rule="evenodd" clip-rule="evenodd" d="M114.095 58.9987C114.434 58.5138 115.196 58.7593 115.187 59.3505L115.132 63.3169C115.129 63.5161 115.225 63.7038 115.389 63.8177L118.647 66.0856C119.133 66.4239 118.887 67.1871 118.295 67.178L114.326 67.1172C114.126 67.1141 113.939 67.2102 113.825 67.3737L111.554 70.6262C111.215 71.111 110.454 70.8656 110.462 70.2743L110.517 66.3079C110.52 66.1086 110.424 65.921 110.26 65.8071L107.002 63.5392C106.516 63.2008 106.762 62.4377 107.354 62.4468L111.323 62.5076C111.523 62.5106 111.71 62.4146 111.824 62.2511L114.095 58.9987Z" fill="#71717A"/>
<g filter="url(#filter0_d_2210_1777)">
<mask id="path-3-inside-1_2210_1777" fill="white">
<path fill-rule="evenodd" clip-rule="evenodd" d="M62.4381 2.54281C62.3251 2.47347 62.1891 2.45187 62.0602 2.48276L34.5282 9.07777C31.2989 9.85131 29.312 13.1007 30.0951 16.3277L43.901 73.2195C44.6808 76.433 47.9137 78.4098 51.1295 77.6395L96.2349 66.8349C99.4642 66.0614 101.451 62.812 100.668 59.585L91.1401 20.3222C91.1089 20.1938 91.0283 20.083 90.9157 20.0139L62.4381 2.54281Z"/>
</mask>
<path fill-rule="evenodd" clip-rule="evenodd" d="M62.4381 2.54281C62.3251 2.47347 62.1891 2.45187 62.0602 2.48276L34.5282 9.07777C31.2989 9.85131 29.312 13.1007 30.0951 16.3277L43.901 73.2195C44.6808 76.433 47.9137 78.4098 51.1295 77.6395L96.2349 66.8349C99.4642 66.0614 101.451 62.812 100.668 59.585L91.1401 20.3222C91.1089 20.1938 91.0283 20.083 90.9157 20.0139L62.4381 2.54281Z" fill="url(#paint0_linear_2210_1777)"/>
<path d="M30.0951 16.3277L29.1233 16.5635L30.0951 16.3277ZM43.901 73.2195L42.9292 73.4553L43.901 73.2195ZM51.1295 77.6395L50.8965 76.667L51.1295 77.6395ZM96.2349 66.8349L96.4679 67.8074L96.2349 66.8349ZM100.668 59.585L99.6962 59.8209L100.668 59.585ZM91.1401 20.3222L92.1119 20.0864L91.1401 20.3222ZM90.9157 20.0139L90.3927 20.8663L90.9157 20.0139ZM62.4381 2.54281L62.961 1.69044L62.4381 2.54281ZM34.7611 10.0503L62.2931 3.45525L61.8272 1.51027L34.2952 8.10528L34.7611 10.0503ZM31.0669 16.0918C30.4143 13.4027 32.0701 10.6949 34.7611 10.0503L34.2952 8.10528C30.5277 9.00774 28.2097 12.7987 29.1233 16.5635L31.0669 16.0918ZM44.8728 72.9837L31.0669 16.0918L29.1233 16.5635L42.9292 73.4553L44.8728 72.9837ZM50.8965 76.667C48.2167 77.3089 45.5227 75.6616 44.8728 72.9837L42.9292 73.4553C43.839 77.2044 47.6107 79.5107 51.3624 78.612L50.8965 76.667ZM96.002 65.8624L50.8965 76.667L51.3624 78.612L96.4679 67.8074L96.002 65.8624ZM99.6962 59.8209C100.349 62.51 98.6931 65.2178 96.002 65.8624L96.4679 67.8074C100.235 66.9049 102.553 63.114 101.64 59.3492L99.6962 59.8209ZM90.1683 20.558L99.6962 59.8209L101.64 59.3492L92.1119 20.0864L90.1683 20.558ZM91.4386 19.1615L62.961 1.69044L61.9152 3.39519L90.3927 20.8663L91.4386 19.1615ZM92.1119 20.0864C92.0184 19.7012 91.7764 19.3688 91.4386 19.1615L90.3927 20.8663C90.2801 20.7972 90.1995 20.6864 90.1683 20.558L92.1119 20.0864ZM62.2931 3.45525C62.1642 3.48614 62.0282 3.46453 61.9152 3.39519L62.961 1.69044C62.6219 1.4824 62.2141 1.4176 61.8272 1.51027L62.2931 3.45525Z" fill="#766DF8" mask="url(#path-3-inside-1_2210_1777)"/>
<path d="M67.34 21.668L62.9884 3.50143L89.7256 19.9048L71.5591 24.2564C69.6792 24.7067 67.7903 23.5479 67.34 21.668Z" fill="url(#paint1_linear_2210_1777)" stroke="#766DF8"/>
</g>
<path fill-rule="evenodd" clip-rule="evenodd" d="M127.92 36.1662C128.352 36.57 128.002 37.2892 127.418 37.1973L117.87 35.6956C117.673 35.6647 117.473 35.7335 117.338 35.8793L110.739 42.9603C110.335 43.3935 109.614 43.0421 109.707 42.4572L111.224 32.8976C111.255 32.7008 111.186 32.5013 111.041 32.3652L103.979 25.7664C103.547 25.3627 103.898 24.6434 104.482 24.7353L114.03 26.2367C114.227 26.2676 114.426 26.1988 114.562 26.053L121.161 18.972C121.564 18.5388 122.285 18.8902 122.192 19.4751L120.676 29.0347C120.644 29.2315 120.713 29.431 120.859 29.5671L127.92 36.1662Z" fill="#FCD34D"/>
<defs>
<filter id="filter0_d_2210_1777" x="24.9244" y="2.44397" width="75.9142" height="88.3619" filterUnits="userSpaceOnUse" color-interpolation-filters="sRGB">
<feFlood flood-opacity="0" result="BackgroundImageFix"/>
<feColorMatrix in="SourceAlpha" type="matrix" values="0 0 0 0 0 0 0 0 0 0 0 0 0 0 0 0 0 0 127 0" result="hardAlpha"/>
<feOffset dx="-5" dy="13"/>
<feComposite in2="hardAlpha" operator="out"/>
<feColorMatrix type="matrix" values="0 0 0 0 0.12549 0 0 0 0 0.12549 0 0 0 0 0.133333 0 0 0 1 0"/>
<feBlend mode="normal" in2="BackgroundImageFix" result="effect1_dropShadow_2210_1777"/>
<feBlend mode="normal" in="SourceGraphic" in2="effect1_dropShadow_2210_1777" result="shape"/>
</filter>
<linearGradient id="paint0_linear_2210_1777" x1="57.1651" y1="3.65532" x2="73.598" y2="72.2574" gradientUnits="userSpaceOnUse">
<stop stop-color="#3D3886"/>
<stop offset="1" stop-color="#332B46"/>
</linearGradient>
<linearGradient id="paint1_linear_2210_1777" x1="79.4008" y1="22.8922" x2="73.8362" y2="-0.338297" gradientUnits="userSpaceOnUse">
<stop stop-color="#3D3886"/>
<stop offset="1" stop-color="#332B46"/>
</linearGradient>
</defs>
</svg>
